#!OML:ASF F:\VICON\USERDATA\INSTALL\rory3\rory3.ASF
:FULLY-SPECIFIED
:DEGREES
511
root -1.61366 16.622 15.7129 -125.144 -25.9772 -211.954
lowerback -10.9749 -6.01889 -0.114682
upperback -13.1449 -10.2359 -3.85533
thorax -8.79129 -6.24703 -4.1982
lowerneck -21.4283 -2.8911 -6.51579
upperneck 29.9066 -3.17023 0.403568
head 13.8876 -2.49027 0.594231
rclavicle 2.34566e-014 -1.59028e-014
rhumerus 42.889 -40.9209 -33.5322
rradius 44.4792
rwrist -74.1729
rhand -15.4937 12.5996
rfingers 7.12502
rthumb 10.6885 -17.1085
lclavicle 2.34566e-014 -1.59028e-014
lhumerus 26.9414 25.8501 14.0747
lradius 19.9817
lwrist -39.2784
lhand 17.0896 29.2728
lfingers 7.12502
lthumb 41.8148 53.9246
rfemur 103.453 -163.727 -179.802
rtibia 48.8272
rfoot -60.0552 -38.8856
rtoes 50.1302
lfemur -18.79 3.23102 -29.7374
ltibia 22.3934
lfoot -0.871958 3.63279
ltoes -7.41183
512
root -1.62739 16.6224 15.8963 -125.905 -26.1 -211.534
lowerback -10.6817 -5.77544 -0.303588
upperback -13.1077 -9.88428 -3.879
thorax -8.84571 -6.03807 -4.08157
lowerneck -20.0783 -2.86462 -6.30855
upperneck 29.9031 -3.40549 0.332457
head 13.5996 -2.61995 0.503706
rclavicle 1.42727e-013 7.79236e-014
rhumerus 42.464 -40.3125 -34.2224
rradius 44.1535
rwrist -72.9163
rhand -15.3313 12.3859
rfingers 7.12502
rthumb 10.8452 -17.3141
lclavicle 1.42727e-013 7.79236e-014
lhumerus 27.494 24.3826 14.2078
lradius 20.2594
lwrist -38.603
lhand 16.9928 29.0335
lfingers 7.12502
lthumb 41.7241 53.7153
rfemur 104.629 -165.882 -182.272
rtibia 48.2352
rfoot -64.0097 -37.8895
rtoes 51.7476
lfemur -18.7416 3.55857 -31.6653
ltibia 21.8392
lfoot 1.14508 2.82584
ltoes -12.8588
513
root -1.64032 16.6132 16.0819 -126.831 -26.5136 -210.973
lowerback -10.3268 -5.60835 -0.164518
upperback -12.7138 -9.53661 -3.84399
thorax -8.56291 -5.80884 -4.10617
lowerneck -20.1213 -2.97983 -6.03156
upperneck 30.1399 -3.66356 0.220974
head 13.71 -2.72505 0.361925
rclavicle -2.78299e-015 0
rhumerus 42.4644 -40.3015 -35.088
rradius 43.7781
rwrist -71.8449
rhand -14.9989 12.1897
rfingers 7.12502
rthumb 11.1659 -17.4932
lclavicle -2.78299e-015 0
lhumerus 28.1305 22.9676 13.7949
lradius 20.6942
lwrist -37.0228
lhand 16.7592 29.2984
lfingers 7.12502
lthumb 41.5049 54.0522
rfemur 105.634 -167.688 -183.909
rtibia 47.7638
rfoot -66.9245 -36.9824
rtoes 53.5869
lfemur -18.6537 3.4799 -33.0326
ltibia 21.5969
lfoot 3.29894 1.68879
ltoes -18.7083
514
root -1.64717 16.5856 16.2713 -127.678 -26.8539 -210.317
lowerback -10.1317 -5.43607 -0.25872
upperback -12.4339 -9.1859 -3.66842
thorax -8.26019 -5.56244 -3.86922
lowerneck -19.3812 -3.10253 -5.89706
upperneck 30.0441 -3.98525 0.191993
head 13.5179 -2.86922 0.284019
rclavicle 1.18476e-013 5.725e-014
rhumerus 42.1825 -39.9678 -35.2829
rradius 43.5258
rwrist -71.511
rhand -14.8086 11.9899
rfingers 7.12502
rthumb 11.3493 -17.683
lclavicle 1.18476e-013 5.725e-014
lhumerus 28.8965 22.0609 13.7792
lradius 20.929
lwrist -36.1729
lhand 16.2229 29.2073
lfingers 7.12502
lthumb 41.0015 54.1233
rfemur 106.057 -169.014 -184.854
rtibia 47.502
rfoot -68.6826 -36.2904
rtoes 54.8305
lfemur -18.9664 2.94487 -34.1656
ltibia 21.9495
lfoot 5.19731 0.362427
ltoes -21.9627
515
root -1.65361 16.5616 16.4654 -128.598 -27.5577 -209.273
lowerback -9.9982 -5.2571 0.123513
upperback -12.1203 -8.80011 -3.24223
thorax -7.91212 -5.31064 -3.63611
lowerneck -19.1371 -3.26665 -5.98028
upperneck 30.1367 -4.28773 0.299068
head 13.5211 -3.00605 0.289314
rclavicle 6.59965e-014 6.20208e-014
rhumerus 42.49 -39.9812 -35.728
rradius 43.2339
rwrist -71.1963
rhand -14.385 11.6282
rfingers 7.12502
rthumb 11.7578 -18.0218
lclavicle 6.59965e-014 6.20208e-014
lhumerus 30.0297 22.2269 14.5566
lradius 20.8937
lwrist -36.5685
lhand 15.6322 28.7001
lfingers 7.12502
lthumb 40.4464 53.7899
rfemur 106.275 -170.139 -184.991
rtibia 47.2773
rfoot -69.7834 -35.966
rtoes 54.529
lfemur -19.5052 2.14143 -34.6086
ltibia 22.5983
lfoot 6.54903 -0.493755
ltoes -24.6716
516
root -1.66884 16.5224 16.6724 -129.313 -28.2154 -208.071
lowerback -10.2116 -5.04245 0.604704
upperback -11.8557 -8.37986 -2.66791
thorax -7.4196 -5.05265 -3.33975
lowerneck -19.072 -3.39239 -6.11177
upperneck 30.1567 -4.41018 0.202324
head 13.5228 -3.08946 0.252652
rclavicle 7.7526e-014 1.03368e-013
rhumerus 43.5085 -40.1652 -36.5047
rradius 42.7031
rwrist -70.6351
rhand -13.7567 11.7349
rfingers 7.12502
rthumb 12.3637 -17.8796
lclavicle 7.7526e-014 1.03368e-013
lhumerus 30.8459 22.0846 14.9209
lradius 21.0906
lwrist -36.3135
lhand 15.4812 28.5762
lfingers 7.12502
lthumb 40.3044 53.7097
rfemur 105.879 -170.344 -184.221
rtibia 47.1037
rfoot -69.1683 -35.9865
rtoes 54.3026
lfemur -20.3596 1.01071 -34.9026
ltibia 23.4703
lfoot 6.98891 -0.486479
ltoes -23.9812
